<?xml version="1.0" standalone="no"?>
<!DOCTYPE svg PUBLIC "-//W3C//DTD SVG 20010904//EN"
 "http://www.w3.org/TR/2001/REC-SVG-20010904/DTD/svg10.dtd">
<svg version="1.0" xmlns="http://www.w3.org/2000/svg"
 width="1024.000000pt" height="1024.000000pt" viewBox="0 0 1024.000000 1024.000000"
 preserveAspectRatio="xMidYMid meet">
<metadata>
Created by potrace 1.11, written by Peter Selinger 2001-2013
</metadata>
<g transform="translate(0.000000,1024.000000) scale(0.100000,-0.100000)"
fill="#000000" stroke="none">
<path d="M1535 9410 c-22 -5 -52 -11 -66 -13 -125 -24 -270 -105 -383 -215
-86 -84 -134 -147 -179 -237 -31 -61 -45 -100 -74 -206 -4 -13 -8 -355 -9
-759 -2 -501 1 -719 7 -685 21 104 84 204 172 268 50 38 95 57 315 134 103 35
277 96 387 135 110 38 290 101 400 140 110 38 211 74 225 78 14 4 104 36 200
70 96 34 220 77 275 96 55 19 123 43 150 53 28 10 106 37 175 60 69 23 134 46
145 50 171 72 388 102 545 76 19 -4 44 -8 55 -10 51 -7 151 -38 280 -85 44
-16 145 -52 225 -80 80 -28 181 -64 225 -80 70 -25 169 -60 515 -181 47 -17
94 -34 105 -39 11 -4 74 -27 140 -50 66 -23 156 -55 200 -70 44 -16 229 -81
410 -145 182 -64 385 -137 453 -161 l123 -45 382 142 c210 77 478 176 595 220
117 43 215 79 218 79 3 0 20 6 37 14 18 7 100 38 182 69 83 30 272 100 420
155 149 55 322 119 385 142 63 24 126 47 140 53 14 5 30 11 35 13 6 1 48 16
95 34 105 39 177 42 240 10 68 -35 117 -95 133 -165 3 -11 5 66 5 170 0 275
-15 361 -89 506 -61 122 -175 249 -293 328 -82 54 -203 109 -256 117 -14 1
-47 8 -75 13 -61 12 -7109 13 -7170 1z"/>
<path d="M3030 7529 c-223 -76 -443 -152 -490 -168 -78 -27 -433 -149 -745
-258 -71 -24 -158 -54 -192 -65 -43 -13 -63 -25 -64 -36 -1 -22 -1 -4250 0
-4278 1 -20 11 -18 174 43 94 36 219 82 277 103 58 21 141 52 185 68 44 17
168 62 275 102 107 39 229 84 270 100 41 15 109 40 150 54 41 15 84 31 95 36
34 14 404 149 445 162 l38 12 1 152 c0 147 0 152 -19 147 -11 -3 -20 -9 -20
-13 0 -8 -171 -89 -198 -95 -10 -1 -37 -8 -62 -15 -105 -29 -219 -34 -725 -34
l-470 -1 -1 1575 c-1 866 0 1580 2 1585 6 14 981 10 1090 -5 46 -6 119 -22
161 -36 78 -25 223 -100 223 -116 0 -4 4 -8 9 -8 6 0 10 218 10 565 -1 311 -4
565 -7 565 -4 -1 -189 -64 -412 -141z"/>
<path d="M4165 7064 c0 -294 3 -534 6 -534 4 0 19 18 34 40 15 22 31 40 34 40
3 0 18 10 31 23 33 28 80 55 111 61 13 3 35 8 49 11 18 4 1082 9 1265 5 20 0
20 -6 20 -279 0 -154 -3 -283 -7 -287 -4 -4 -233 -7 -508 -7 l-500 0 -1 -51
c0 -28 -1 -193 -2 -366 l-2 -315 308 2 307 2 0 -22 c1 -36 1 -510 1 -533 -1
-22 -1 -22 -301 -22 -166 0 -304 -2 -307 -6 -4 -3 -7 -168 -7 -365 l-1 -358
510 0 510 0 0 -276 c0 -153 -2 -278 -5 -278 -24 -6 -1265 -3 -1297 3 -89 16
-160 63 -223 149 l-26 36 1 -203 c0 -112 3 -205 5 -207 3 -2 91 -34 195 -71
105 -37 199 -71 210 -76 11 -4 34 -13 50 -19 33 -11 276 -98 675 -241 140 -50
318 -114 395 -141 77 -28 193 -70 257 -93 74 -27 118 -39 121 -32 2 6 3 901 3
1989 -1 1087 1 1977 4 1977 4 0 43 -144 96 -350 2 -8 8 -33 14 -55 6 -22 13
-51 16 -64 3 -14 7 -28 10 -33 3 -5 8 -21 10 -36 3 -15 13 -56 23 -92 19 -67
78 -289 86 -325 2 -11 9 -36 14 -55 5 -19 23 -87 39 -150 17 -63 40 -151 52
-195 53 -199 92 -351 95 -365 2 -8 13 -49 24 -90 48 -182 80 -303 156 -596 20
-76 40 -152 45 -169 4 -16 11 -42 14 -57 4 -16 10 -28 14 -28 4 0 6 516 6
1147 -1 706 2 1136 8 1118 5 -16 11 -37 12 -45 5 -18 68 -258 91 -345 9 -33
18 -71 21 -84 3 -14 7 -28 10 -33 3 -5 7 -20 10 -33 2 -14 27 -110 55 -213 28
-103 56 -212 64 -242 8 -30 23 -89 34 -130 25 -98 111 -422 115 -435 1 -5 8
-36 16 -67 12 -54 25 -75 28 -45 0 6 16 73 35 147 39 147 197 766 202 790 2 8
11 42 20 75 9 33 18 67 20 75 1 8 30 121 63 250 33 129 86 336 117 459 31 123
59 231 61 240 2 9 10 40 16 69 11 49 14 52 42 53 132 3 598 1 601 -3 3 -2 0
-20 -6 -39 -5 -19 -12 -41 -14 -49 -2 -8 -22 -87 -45 -175 -23 -88 -52 -200
-65 -250 -13 -49 -42 -160 -65 -245 -22 -85 -42 -162 -44 -170 -2 -8 -9 -35
-16 -60 -7 -25 -14 -53 -15 -62 -2 -10 -16 -62 -30 -115 -15 -54 -29 -106 -31
-116 -2 -10 -6 -27 -9 -37 -3 -10 -8 -27 -10 -37 -5 -19 -19 -72 -36 -133 -5
-19 -12 -45 -15 -58 -2 -13 -31 -123 -64 -245 -32 -122 -82 -312 -110 -422
-29 -110 -61 -234 -72 -275 -11 -41 -21 -82 -23 -90 -2 -8 -9 -35 -16 -60 -15
-52 -13 -45 -23 -90 -18 -77 -104 -215 -190 -308 -38 -40 -137 -110 -161 -113
-5 -1 -20 -5 -32 -10 -58 -22 -182 -8 -260 28 -56 27 -183 138 -183 160 0 7
-3 13 -7 13 -9 0 -35 42 -70 113 -12 26 -25 47 -27 47 -3 0 -5 -301 -4 -670 0
-368 2 -670 4 -670 2 0 56 18 121 41 65 22 143 49 173 59 30 10 109 37 175 60
231 81 1312 452 1388 477 40 14 47 20 48 42 1 33 1 4239 0 4267 -1 21 -10 18
-173 -42 -95 -35 -195 -73 -223 -83 -27 -11 -309 -115 -625 -231 -316 -116
-586 -216 -600 -221 -55 -23 -268 -99 -279 -99 -8 0 -11 -78 -10 -271 0 -149
-1 -272 -3 -274 -3 -3 -48 158 -63 230 -3 11 -13 50 -24 88 -11 37 -20 69 -21
72 -5 29 -13 30 -311 27 -191 -2 -298 -6 -294 -12 3 -6 1 -10 -4 -10 -13 0
-14 13 -4 24 4 4 8 50 8 102 0 75 -3 95 -15 100 -25 10 -476 173 -620 224
-167 59 -378 135 -530 190 -63 23 -126 46 -140 50 -14 5 -108 38 -210 75 -102
37 -232 84 -290 105 l-105 37 0 -533z"/>
<path d="M3450 6529 c-4 -25 -1 -2801 2 -2805 7 -6 97 92 139 151 80 111 130
226 166 380 14 61 16 167 18 825 2 685 -1 820 -20 915 -29 148 -101 300 -207
436 -41 52 -97 108 -98 98z"/>
<path d="M4138 6438 c-19 -66 -20 -2543 -1 -2619 8 -30 17 -57 21 -61 4 -4 7
607 7 1357 0 751 -3 1365 -7 1365 -4 0 -13 -19 -20 -42z"/>
<path d="M2569 6102 c-1 -21 0 -1906 0 -1949 l1 -31 198 2 c197 2 244 9 302
44 73 44 101 68 120 100 51 85 50 65 47 862 l-2 745 -26 50 c-23 44 -82 115
-96 115 -3 0 -17 9 -32 20 -62 44 -116 53 -318 56 -176 3 -193 1 -194 -14z"/>
<path d="M9409 2978 c-2 -85 -50 -189 -120 -257 -74 -72 -144 -103 -519 -231
-30 -10 -127 -44 -215 -75 -88 -31 -216 -76 -285 -100 -196 -68 -510 -178
-685 -240 -88 -31 -167 -58 -175 -60 -8 -2 -42 -13 -75 -26 -33 -13 -64 -24
-70 -25 -5 -1 -89 -30 -185 -64 -333 -119 -427 -136 -638 -117 -75 7 -165 27
-231 52 -20 7 -69 25 -108 39 -40 14 -103 37 -140 50 -66 24 -210 75 -540 191
-87 31 -180 64 -208 75 -27 10 -88 32 -135 48 -47 17 -137 49 -200 72 -63 23
-119 43 -125 44 -5 2 -17 6 -25 9 -8 3 -87 31 -175 62 -88 31 -173 61 -190 68
-16 6 -34 12 -40 13 -5 1 -149 52 -319 113 -170 61 -313 111 -317 111 -5 0
-86 -29 -181 -64 -95 -36 -351 -130 -568 -211 -217 -80 -496 -184 -620 -230
-124 -46 -385 -142 -580 -215 -195 -72 -371 -137 -390 -145 -132 -54 -240 -86
-291 -86 -90 -1 -172 50 -214 134 l-27 52 5 -230 c5 -226 5 -231 36 -323 57
-165 126 -267 262 -387 75 -66 88 -75 187 -125 31 -16 93 -39 137 -52 l80 -23
3570 -2 c2148 -2 3586 1 3610 7 22 5 55 11 72 15 76 13 225 84 299 143 71 56
168 159 206 217 49 76 103 197 112 250 2 11 9 49 15 84 11 65 17 1471 6 1471
-3 0 -5 -15 -6 -32z"/>
</g>
</svg>
